<svg width="106" height="38" viewBox="0 0 106 38" fill="none" xmlns="http://www.w3.org/2000/svg">
<g filter="url(#filter0_d_2040_30)">
<path d="M22.2 0.68C25.24 0.68 27.5467 1.36 29.12 2.72C30.6933 4.08 31.48 5.89333 31.48 8.16C31.48 8.82667 31.4267 9.42667 31.32 9.96C30.9733 11.88 30.1467 13.5733 28.84 15.04C27.5333 16.48 25.84 17.52 23.76 18.16L28 29H18.24L14.68 18.84L12.88 29H4L9 0.68H22.2ZM15.72 12.92H19.24C20.0933 12.92 20.76 12.7333 21.24 12.36C21.7467 11.96 22.08 11.3467 22.24 10.52C22.2667 10.3867 22.28 10.2133 22.28 10C22.28 9.41333 22.0933 8.96 21.72 8.64C21.3467 8.29333 20.8 8.12 20.08 8.12H16.56L15.72 12.92ZM45.2769 0.68L42.4769 16.64C42.3969 17.0667 42.3569 17.5067 42.3569 17.96C42.3569 18.8667 42.5969 19.5867 43.0769 20.12C43.5569 20.6267 44.3169 20.88 45.3569 20.88C46.6369 20.88 47.6502 20.5067 48.3969 19.76C49.1435 18.9867 49.6369 17.9467 49.8769 16.64L52.6769 0.68H61.5169L58.7169 16.64C58.2369 19.4133 57.2769 21.7467 55.8369 23.64C54.4235 25.5333 52.6769 26.9467 50.5969 27.88C48.5435 28.8133 46.2769 29.28 43.7969 29.28C40.6235 29.28 38.0902 28.4533 36.1969 26.8C34.3035 25.12 33.3569 22.7333 33.3569 19.64C33.3569 18.6533 33.4502 17.6533 33.6369 16.64L36.4369 0.68H45.2769ZM73.3069 29.28C69.8402 29.28 67.0669 28.5867 64.9869 27.2C62.9335 25.8133 61.9069 23.7867 61.9069 21.12C61.9069 20.8533 61.9335 20.4533 61.9869 19.92H71.4269C71.3469 20.7467 71.4669 21.36 71.7869 21.76C72.1335 22.16 72.6935 22.36 73.4669 22.36C73.9469 22.36 74.3469 22.24 74.6669 22C74.9869 21.76 75.1469 21.4133 75.1469 20.96C75.1469 20.32 74.8269 19.7867 74.1869 19.36C73.5735 18.9333 72.5735 18.4267 71.1869 17.84C69.6669 17.2 68.4135 16.5867 67.4269 16C66.4669 15.4133 65.6269 14.6133 64.9069 13.6C64.1869 12.5867 63.8269 11.32 63.8269 9.8C63.8269 7.8 64.3202 6.08 65.3069 4.64C66.3202 3.17333 67.7202 2.06667 69.5069 1.32C71.2935 0.573332 73.3335 0.199999 75.6269 0.199999C77.6802 0.199999 79.5069 0.519999 81.1069 1.16C82.7335 1.8 84.0002 2.73333 84.9069 3.96C85.8402 5.16 86.3069 6.58667 86.3069 8.24C86.3069 8.45333 86.2802 8.82667 86.2269 9.36H76.6669C76.7202 9.04 76.7469 8.82667 76.7469 8.72C76.7469 8.21333 76.6002 7.82667 76.3069 7.56C76.0135 7.26667 75.6135 7.12 75.1069 7.12C74.6535 7.12 74.2802 7.25333 73.9869 7.52C73.6935 7.78667 73.5469 8.13333 73.5469 8.56C73.5469 9.14667 73.8535 9.66667 74.4669 10.12C75.0802 10.5467 76.0535 11.08 77.3869 11.72C78.9069 12.44 80.1602 13.12 81.1469 13.76C82.1602 14.4 83.0269 15.2533 83.7469 16.32C84.4669 17.36 84.8269 18.64 84.8269 20.16C84.8269 21.8933 84.3602 23.4533 83.4269 24.84C82.5202 26.2267 81.2002 27.32 79.4669 28.12C77.7335 28.8933 75.6802 29.28 73.3069 29.28ZM101.491 0.68L96.4909 29H87.6109L92.6109 0.68H101.491Z" fill="black"/>
</g>
<defs>
<filter id="filter0_d_2040_30" x="0" y="0.199951" width="105.491" height="37.0801" filterUnits="userSpaceOnUse" color-interpolation-filters="sRGB">
<feFlood flood-opacity="0" result="BackgroundImageFix"/>
<feColorMatrix in="SourceAlpha" type="matrix" values="0 0 0 0 0 0 0 0 0 0 0 0 0 0 0 0 0 0 127 0" result="hardAlpha"/>
<feOffset dy="4"/>
<feGaussianBlur stdDeviation="2"/>
<feComposite in2="hardAlpha" operator="out"/>
<feColorMatrix type="matrix" values="0 0 0 0 0 0 0 0 0 0 0 0 0 0 0 0 0 0 0.25 0"/>
<feBlend mode="normal" in2="BackgroundImageFix" result="effect1_dropShadow_2040_30"/>
<feBlend mode="normal" in="SourceGraphic" in2="effect1_dropShadow_2040_30" result="shape"/>
</filter>
</defs>
</svg>
